<svg xmlns="http://www.w3.org/2000/svg" xmlns:xlink="http://www.w3.org/1999/xlink" width="39" height="26" viewBox="0 0 39 26">
  <defs>
    <path id="logo-a" d="M25.0315143,29.6725442 C24.8884532,31.3562633 24.3354753,32.85288 23.3725641,34.1624393 C22.4096528,35.4719987 21.1441313,36.4789136 19.5759616,37.1832144 C18.0077918,37.8875152 16.3103423,38.2231535 14.4835621,38.1901394 C11.9744905,38.1351159 9.99917648,37.3262826 8.55756078,35.7636152 C7.11594508,34.2009478 6.32912083,32.0825748 6.19706443,29.4084327 C6.09802213,27.6256713 6.29335263,25.6833709 6.78306178,23.5814732 C7.27277093,21.4795755 8.07059971,19.6500716 9.17657206,18.0929065 C10.2825444,16.5357415 11.5865818,15.3692608 13.0887234,14.5934294 C14.5908649,13.8175981 16.2332917,13.446195 18.0160531,13.4792091 C20.6351717,13.5232279 22.7067754,14.3100521 24.2309264,15.8397054 C25.7550774,17.3693588 26.5831686,19.4767272 26.715225,22.161874 L21.0863491,22.145367 C21.1083585,20.6817419 20.8442497,19.6363111 20.2940147,19.0090432 C19.7437797,18.3817753 18.8744214,18.046137 17.6859138,18.0021182 C14.7146448,17.9030759 12.9043988,20.2140282 12.2551215,24.9350445 C11.9579946,27.0699563 11.8094334,28.5940844 11.8094334,29.5074745 C11.7544099,32.2146307 12.7558226,33.6067044 14.8137015,33.6837373 C16.1452702,33.7277561 17.2072078,33.4003712 17.9995462,32.7015727 C18.7918846,32.0027743 19.2980932,31.0151173 19.5181872,29.7385721 L25.0315143,29.6725442 Z M40.580763,37.8600001 L34.968394,37.8600001 L36.7016256,27.8237638 L28.4646489,27.8237638 L26.7149103,37.8600001 L21.0695274,37.8600001 L25.2292832,13.8258554 L30.8911731,13.8258554 L29.2239694,23.3668826 L37.4774531,23.3668826 L39.1281499,13.8258554 L44.7570258,13.8258554 L40.580763,37.8600001 Z"/>
  </defs>
  <g fill="none" transform="translate(-6 -13)">
    <use fill="#383838" xlink:href="#logo-a"/>
    <use fill="#22272F" xlink:href="#logo-a"/>
  </g>
</svg>
